<svg version="1.1" id="Layer_1" xmlns="http://www.w3.org/2000/svg" xmlns:xlink="http://www.w3.org/1999/xlink" x="0px" y="0px"
	 width="100%" viewBox="0 0 1920 1080" enable-background="new 0 0 1920 1080" xml:space="preserve">
<path fill="#FFFFFF" opacity="1.000000" stroke="none" 
	d="
M1921.000000,155.000000 
	C1921.000000,393.028046 1921.000000,631.056091 1920.665527,869.419800 
	C1879.944214,853.001099 1839.862793,835.458252 1799.101562,819.670715 
	C1732.239014,793.773804 1664.119019,771.649292 1593.910400,756.516785 
	C1566.911255,750.697449 1539.696167,745.879517 1511.926880,747.233765 
	C1502.914062,747.673340 1493.774902,749.452332 1485.107666,752.017700 
	C1474.981934,755.014526 1471.716431,762.928101 1475.133667,772.922546 
	C1475.987427,775.419556 1476.944092,778.030334 1478.491089,780.115906 
	C1485.614258,789.719727 1492.350342,799.712158 1500.356567,808.538940 
	C1517.914795,827.896606 1536.685913,846.168518 1553.939453,865.783081 
	C1565.982056,879.473328 1576.871338,894.280396 1587.248291,909.298584 
	C1594.551514,919.868042 1599.746582,932.000549 1599.824219,945.127747 
	C1599.950928,966.558289 1606.576416,986.077271 1616.113525,1004.701416 
	C1628.339355,1028.576172 1644.809937,1049.473755 1663.397705,1068.734863 
	C1667.305542,1072.784180 1671.134644,1076.909668 1675.000000,1081.000000 
	C1339.971924,1081.000000 1004.943909,1081.000000 669.236572,1080.716675 
	C657.470459,1076.936890 646.520813,1072.901855 635.273010,1070.037476 
	C587.347473,1057.832886 539.492126,1045.285156 491.300415,1034.215332 
	C454.950531,1025.865723 418.173065,1019.334778 381.500977,1012.446533 
	C359.019073,1008.223694 336.425842,1004.521118 313.793213,1001.192749 
	C290.006989,997.694702 266.152191,994.577576 242.256546,991.934265 
	C220.659927,989.545166 198.999023,987.284973 177.307144,986.361633 
	C161.762222,985.700012 146.061234,986.694275 130.533722,988.098145 
	C106.347961,990.284912 83.366463,997.417053 61.296707,1007.474243 
	C39.174095,1017.555664 19.383625,1031.208008 1.000000,1047.000000 
	C1.000000,750.305298 1.000000,453.610596 1.329436,156.571594 
	C43.178658,179.962875 86.206383,200.728073 130.208252,219.304825 
	C177.062195,239.085632 224.283798,258.045410 271.740234,276.338013 
	C348.699463,306.002747 426.844238,332.298004 505.708008,356.460632 
	C570.512024,376.315643 635.676636,394.829712 701.877869,409.483490 
	C742.063110,418.378601 782.360596,426.496674 823.586670,429.313477 
	C842.525696,430.607483 861.072205,429.586365 879.490540,425.307770 
	C916.103760,416.802399 948.411865,399.204559 978.696716,377.626678 
	C1007.639038,357.005310 1034.439941,333.787140 1058.181396,307.327972 
	C1078.268188,284.941803 1098.147949,262.300842 1116.882935,238.787567 
	C1142.830444,206.222229 1165.568726,171.353592 1186.187622,135.164963 
	C1204.000977,103.900757 1220.410034,71.932167 1231.585571,37.582752 
	C1235.438110,25.740944 1239.008423,13.743534 1238.000000,1.000000 
	C1377.361328,1.000000 1516.722778,1.000000 1656.347656,1.287654 
	C1625.518066,15.644043 1594.877441,30.603901 1565.826294,48.596260 
	C1537.355591,66.229134 1509.595337,84.828873 1487.258667,110.271179 
	C1477.071655,121.874725 1468.498047,134.401657 1465.466187,150.009766 
	C1462.480713,165.379196 1468.908447,178.905594 1483.673584,184.116287 
	C1492.755981,187.321487 1502.648193,189.239777 1512.273926,189.698669 
	C1536.111450,190.835083 1559.687134,187.214935 1582.931152,182.372818 
	C1624.174683,173.781113 1665.217407,164.230194 1706.420288,155.437103 
	C1740.207642,148.226547 1774.058716,141.163528 1809.007202,144.962814 
	C1825.990356,146.809082 1842.979248,148.636230 1859.994629,150.144775 
	C1880.313599,151.946182 1900.663452,153.397202 1921.000000,155.000000 
M1127.992432,580.067993 
	C1125.431030,579.539673 1122.869629,579.011353 1119.869507,578.392517 
	C1119.343994,581.152893 1119.068726,583.608521 1118.387695,585.945923 
	C1117.320679,589.607605 1118.447266,591.295898 1122.255371,592.177673 
	C1135.837891,595.322937 1148.739136,593.804565 1160.884033,586.985474 
	C1168.093262,582.937622 1172.108276,576.812195 1171.990356,568.244995 
	C1171.944580,564.924011 1172.385132,561.598206 1172.557129,558.272095 
	C1172.992065,549.867676 1173.400146,541.461853 1173.833984,532.756897 
	C1167.963257,532.250427 1162.679810,531.585449 1157.382568,531.446655 
	C1155.426880,531.395447 1153.438843,532.583679 1150.268311,533.584534 
	C1142.562866,529.428711 1133.273315,528.555481 1123.768433,532.779114 
	C1113.777588,537.218628 1108.370483,546.221619 1109.887451,555.763062 
	C1111.233398,564.228577 1119.096069,571.062622 1129.690186,571.841858 
	C1135.992065,572.305420 1142.395508,571.388916 1149.089355,571.077271 
	C1149.006104,574.555786 1146.707275,577.563721 1143.087891,578.487732 
	C1138.510010,579.656433 1133.632690,579.652161 1127.992432,580.067993 
M1338.754028,565.371948 
	C1339.122925,560.741699 1339.068237,556.027222 1339.967407,551.502319 
	C1341.109863,545.752319 1344.764038,543.724670 1350.736816,544.622986 
	C1355.684570,545.367126 1357.082520,547.358643 1357.056152,553.488098 
	C1357.029907,559.574463 1357.050415,565.660950 1357.050415,571.687378 
	C1364.575317,571.687378 1372.145142,571.687378 1380.747437,571.687378 
	C1380.747437,563.676514 1380.846680,556.038269 1380.715942,548.403992 
	C1380.612549,542.367432 1378.093140,537.499268 1372.982300,534.090515 
	C1367.101440,530.168152 1360.577759,529.309143 1353.846069,530.626953 
	C1348.937256,531.588013 1344.162598,533.235107 1339.446777,534.543457 
	C1339.446777,527.826416 1339.446777,521.256592 1339.446777,514.169006 
	C1331.769897,514.858643 1324.544067,515.507812 1316.747681,516.208252 
	C1316.105591,534.819153 1315.472168,553.177307 1314.822754,572.003784 
	C1321.511841,572.003784 1327.486694,571.726624 1333.421875,572.092957 
	C1338.032227,572.377625 1339.450195,570.523376 1338.754028,565.371948 
M1244.613770,537.662048 
	C1244.613770,535.574219 1244.613770,533.486328 1244.613770,531.238342 
	C1238.292358,530.739990 1232.741943,530.302429 1227.126953,529.859741 
	C1226.926758,532.512390 1226.781250,534.441223 1226.600342,536.838318 
	C1225.732178,536.288574 1225.188354,536.012939 1224.723022,535.639465 
	C1215.202393,527.996887 1200.404297,528.267883 1191.078735,536.118164 
	C1181.839722,543.895508 1179.283936,564.740601 1196.353638,571.032043 
	C1207.562012,575.163147 1218.160400,574.924866 1227.895020,564.706299 
	C1227.604004,573.633911 1233.009521,572.085571 1237.768066,571.654907 
	C1239.895386,571.462341 1242.012085,571.151489 1244.613281,570.836243 
	C1244.613281,559.904907 1244.613281,549.264587 1244.613770,537.662048 
M1286.566772,516.639709 
	C1279.155518,516.912109 1271.744263,517.184509 1264.299927,517.458069 
	C1263.764893,523.199768 1263.305420,528.129883 1262.853882,532.974426 
	C1254.496094,534.013428 1254.496094,534.013428 1253.959351,542.563538 
	C1256.503296,542.791504 1259.065552,543.021057 1261.941406,543.278748 
	C1261.759766,547.231201 1261.542847,550.856750 1261.436279,554.485535 
	C1261.170166,563.557068 1265.300049,569.451050 1273.967407,571.900452 
	C1283.197021,574.508789 1292.440430,573.613464 1301.517700,571.062012 
	C1302.803345,570.700623 1304.279907,568.820740 1304.529053,567.438477 
	C1305.007080,564.785339 1304.668091,561.984863 1304.668091,559.048645 
	C1300.166016,559.750977 1296.444580,560.614990 1292.685791,560.832764 
	C1289.359985,561.025391 1286.131958,560.044678 1285.887207,555.913086 
	C1285.636230,551.677979 1285.831421,547.416443 1285.831421,542.939331 
	C1289.998657,542.939331 1293.311401,542.945984 1296.624146,542.938049 
	C1303.971924,542.920471 1304.716431,542.097412 1304.516479,533.602844 
	C1298.812012,533.602844 1293.080322,533.602844 1287.072144,533.602844 
	C1287.072144,530.354675 1287.058350,527.728394 1287.075928,525.102356 
	C1287.093750,522.460754 1287.142578,519.819336 1286.566772,516.639709 
M1433.332031,561.146851 
	C1422.155518,563.947815 1413.656860,561.443726 1412.310913,554.758057 
	C1422.476807,554.758057 1432.604004,554.758057 1442.694214,554.758057 
	C1444.448608,543.792542 1442.221436,537.620605 1434.322876,533.816772 
	C1422.600220,528.171448 1410.709595,528.666138 1399.435059,535.006165 
	C1391.426392,539.509705 1389.077026,547.229004 1389.994629,555.974121 
	C1390.843506,564.063416 1395.997925,568.644958 1403.344604,571.020264 
	C1412.911255,574.113281 1422.646851,574.018494 1432.408081,572.059937 
	C1442.107910,570.113708 1442.648682,569.319519 1441.716187,558.658142 
	C1439.134521,559.458130 1436.647461,560.228821 1433.332031,561.146851 
M1476.038574,568.565125 
	C1476.415771,562.598816 1477.055908,556.633850 1477.087891,550.665710 
	C1477.114014,545.792053 1479.816650,544.125854 1483.909668,544.087158 
	C1486.987549,544.058105 1490.071899,544.734558 1493.380493,545.123657 
	C1494.673584,541.524658 1495.941040,537.996887 1497.171021,534.573608 
	C1489.086548,528.159973 1484.285156,529.105530 1471.542847,539.355591 
	C1466.063477,531.534241 1465.458008,531.363464 1455.662109,535.388428 
	C1455.662109,547.325806 1455.662109,559.575562 1455.662109,571.694885 
	C1461.504761,571.694885 1467.780029,571.762634 1474.049072,571.596558 
	C1474.720093,571.578674 1475.355103,570.197937 1476.038574,568.565125 
z"/>
<path fill="#9BBCFF" opacity="1.000000" stroke="none" 
	d="
M1237.531372,1.000000 
	C1239.008423,13.743534 1235.438110,25.740944 1231.585571,37.582752 
	C1220.410034,71.932167 1204.000977,103.900757 1186.187622,135.164963 
	C1165.568726,171.353592 1142.830444,206.222229 1116.882935,238.787567 
	C1098.147949,262.300842 1078.268188,284.941803 1058.181396,307.327972 
	C1034.439941,333.787140 1007.639038,357.005310 978.696716,377.626678 
	C948.411865,399.204559 916.103760,416.802399 879.490540,425.307770 
	C861.072205,429.586365 842.525696,430.607483 823.586670,429.313477 
	C782.360596,426.496674 742.063110,418.378601 701.877869,409.483490 
	C635.676636,394.829712 570.512024,376.315643 505.708008,356.460632 
	C426.844238,332.298004 348.699463,306.002747 271.740234,276.338013 
	C224.283798,258.045410 177.062195,239.085632 130.208252,219.304825 
	C86.206383,200.728073 43.178658,179.962875 1.329436,156.113647 
	C1.000000,106.979103 1.000000,57.958210 1.357167,8.477472 
	C5.142889,5.678419 8.571445,3.339210 12.000000,1.000000 
	C420.354248,1.000000 828.708496,1.000000 1237.531372,1.000000 
z"/>
<path fill="#88E8C7" opacity="1.000000" stroke="none" 
	d="
M1675.468628,1081.000000 
	C1671.134644,1076.909668 1667.305542,1072.784180 1663.397705,1068.734863 
	C1644.809937,1049.473755 1628.339355,1028.576172 1616.113525,1004.701416 
	C1606.576416,986.077271 1599.950928,966.558289 1599.824219,945.127747 
	C1599.746582,932.000549 1594.551514,919.868042 1587.248291,909.298584 
	C1576.871338,894.280396 1565.982056,879.473328 1553.939453,865.783081 
	C1536.685913,846.168518 1517.914795,827.896606 1500.356567,808.538940 
	C1492.350342,799.712158 1485.614258,789.719727 1478.491089,780.115906 
	C1476.944092,778.030334 1475.987427,775.419556 1475.133667,772.922546 
	C1471.716431,762.928101 1474.981934,755.014526 1485.107666,752.017700 
	C1493.774902,749.452332 1502.914062,747.673340 1511.926880,747.233765 
	C1539.696167,745.879517 1566.911255,750.697449 1593.910400,756.516785 
	C1664.119019,771.649292 1732.239014,793.773804 1799.101562,819.670715 
	C1839.862793,835.458252 1879.944214,853.001099 1920.665527,869.877747 
	C1921.000000,940.265930 1921.000000,1010.531921 1921.000000,1081.000000 
	C1839.312500,1081.000000 1757.624878,1081.000000 1675.468628,1081.000000 
z"/>
<path fill="#B4A4FF" opacity="1.000000" stroke="none" 
	d="
M1921.000000,154.531342 
	C1900.663452,153.397202 1880.313599,151.946182 1859.994629,150.144775 
	C1842.979248,148.636230 1825.990356,146.809082 1809.007202,144.962814 
	C1774.058716,141.163528 1740.207642,148.226547 1706.420288,155.437103 
	C1665.217407,164.230194 1624.174683,173.781113 1582.931152,182.372818 
	C1559.687134,187.214935 1536.111450,190.835083 1512.273926,189.698669 
	C1502.648193,189.239777 1492.755981,187.321487 1483.673584,184.116287 
	C1468.908447,178.905594 1462.480713,165.379196 1465.466187,150.009766 
	C1468.498047,134.401657 1477.071655,121.874725 1487.258667,110.271179 
	C1509.595337,84.828873 1537.355591,66.229134 1565.826294,48.596260 
	C1594.877441,30.603901 1625.518066,15.644043 1656.805664,1.287654 
	C1744.907837,1.000000 1832.815674,1.000000 1921.000000,1.000000 
	C1921.000000,52.020561 1921.000000,103.041626 1921.000000,154.531342 
z"/>
<path fill="#FFCB8F" opacity="1.000000" stroke="none" 
	d="
M1.000000,1047.468628 
	C19.383625,1031.208008 39.174095,1017.555664 61.296707,1007.474243 
	C83.366463,997.417053 106.347961,990.284912 130.533722,988.098145 
	C146.061234,986.694275 161.762222,985.700012 177.307144,986.361633 
	C198.999023,987.284973 220.659927,989.545166 242.256546,991.934265 
	C266.152191,994.577576 290.006989,997.694702 313.793213,1001.192749 
	C336.425842,1004.521118 359.019073,1008.223694 381.500977,1012.446533 
	C418.173065,1019.334778 454.950531,1025.865723 491.300415,1034.215332 
	C539.492126,1045.285156 587.347473,1057.832886 635.273010,1070.037476 
	C646.520813,1072.901855 657.470459,1076.936890 668.778687,1080.716675 
	C446.333344,1081.000000 223.666656,1081.000000 1.000000,1081.000000 
	C1.000000,1069.923584 1.000000,1058.930420 1.000000,1047.468628 
z"/>
<path fill="#FFFFFF" opacity="1.000000" stroke="none" 
	d="
M11.517044,1.000000 
	C8.571445,3.339210 5.142889,5.678419 1.357167,8.008814 
	C1.000000,5.728788 1.000000,3.457577 1.000000,1.000000 
	C4.343423,1.000000 7.688756,1.000000 11.517044,1.000000 
z"/>
<path fill="#6B4CFF" opacity="1.000000" stroke="none" 
	d="
M1128.438477,580.110901 
	C1133.632690,579.652161 1138.510010,579.656433 1143.087891,578.487732 
	C1146.707275,577.563721 1149.006104,574.555786 1149.089355,571.077271 
	C1142.395508,571.388916 1135.992065,572.305420 1129.690186,571.841858 
	C1119.096069,571.062622 1111.233398,564.228577 1109.887451,555.763062 
	C1108.370483,546.221619 1113.777588,537.218628 1123.768433,532.779114 
	C1133.273315,528.555481 1142.562866,529.428711 1150.268311,533.584534 
	C1153.438843,532.583679 1155.426880,531.395447 1157.382568,531.446655 
	C1162.679810,531.585449 1167.963257,532.250427 1173.833984,532.756897 
	C1173.400146,541.461853 1172.992065,549.867676 1172.557129,558.272095 
	C1172.385132,561.598206 1171.944580,564.924011 1171.990356,568.244995 
	C1172.108276,576.812195 1168.093262,582.937622 1160.884033,586.985474 
	C1148.739136,593.804565 1135.837891,595.322937 1122.255371,592.177673 
	C1118.447266,591.295898 1117.320679,589.607605 1118.387695,585.945923 
	C1119.068726,583.608521 1119.343994,581.152893 1119.869507,578.392517 
	C1122.869629,579.011353 1125.431030,579.539673 1128.438477,580.110901 
M1150.754028,550.826477 
	C1148.770142,543.662415 1144.895386,540.950745 1139.151489,542.706909 
	C1133.746704,544.359375 1130.923950,550.777649 1133.082886,556.505432 
	C1134.947754,561.453308 1140.029907,563.321228 1145.459229,560.927185 
	C1149.467773,559.159607 1150.609375,555.622864 1150.754028,550.826477 
z"/>
<path fill="#397BFF" opacity="1.000000" stroke="none" 
	d="
M1338.753906,565.842407 
	C1339.450195,570.523376 1338.032227,572.377625 1333.421875,572.092957 
	C1327.486694,571.726624 1321.511841,572.003784 1314.822754,572.003784 
	C1315.472168,553.177307 1316.105591,534.819153 1316.747681,516.208252 
	C1324.544067,515.507812 1331.769897,514.858643 1339.446777,514.169006 
	C1339.446777,521.256592 1339.446777,527.826416 1339.446777,534.543457 
	C1344.162598,533.235107 1348.937256,531.588013 1353.846069,530.626953 
	C1360.577759,529.309143 1367.101440,530.168152 1372.982300,534.090515 
	C1378.093140,537.499268 1380.612549,542.367432 1380.715942,548.403992 
	C1380.846680,556.038269 1380.747437,563.676514 1380.747437,571.687378 
	C1372.145142,571.687378 1364.575317,571.687378 1357.050415,571.687378 
	C1357.050415,565.660950 1357.029907,559.574463 1357.056152,553.488098 
	C1357.082520,547.358643 1355.684570,545.367126 1350.736816,544.622986 
	C1344.764038,543.724670 1341.109863,545.752319 1339.967407,551.502319 
	C1339.068237,556.027222 1339.122925,560.741699 1338.753906,565.842407 
z"/>
<path fill="#FF9922" opacity="1.000000" stroke="none" 
	d="
M1244.613525,538.143188 
	C1244.613281,549.264587 1244.613281,559.904907 1244.613281,570.836243 
	C1242.012085,571.151489 1239.895386,571.462341 1237.768066,571.654907 
	C1233.009521,572.085571 1227.604004,573.633911 1227.895020,564.706299 
	C1218.160400,574.924866 1207.562012,575.163147 1196.353638,571.032043 
	C1179.283936,564.740601 1181.839722,543.895508 1191.078735,536.118164 
	C1200.404297,528.267883 1215.202393,527.996887 1224.723022,535.639465 
	C1225.188354,536.012939 1225.732178,536.288574 1226.600342,536.838318 
	C1226.781250,534.441223 1226.926758,532.512390 1227.126953,529.859741 
	C1232.741943,530.302429 1238.292358,530.739990 1244.613770,531.238342 
	C1244.613770,533.486328 1244.613770,535.574219 1244.613525,538.143188 
M1220.894409,545.371033 
	C1217.131348,543.050781 1213.293335,542.881470 1209.829346,545.702637 
	C1206.461792,548.445312 1205.700073,552.630493 1207.602417,556.050964 
	C1208.973633,558.516296 1212.318237,560.998413 1215.014648,561.284241 
	C1217.482178,561.545715 1221.159790,559.510193 1222.700806,557.345520 
	C1225.271240,553.734680 1224.557251,549.460083 1220.894409,545.371033 
z"/>
<path fill="#15D28F" opacity="1.000000" stroke="none" 
	d="
M1286.872314,516.908813 
	C1287.142578,519.819336 1287.093750,522.460754 1287.075928,525.102356 
	C1287.058350,527.728394 1287.072144,530.354675 1287.072144,533.602844 
	C1293.080322,533.602844 1298.812012,533.602844 1304.516479,533.602844 
	C1304.716431,542.097412 1303.971924,542.920471 1296.624146,542.938049 
	C1293.311401,542.945984 1289.998657,542.939331 1285.831421,542.939331 
	C1285.831421,547.416443 1285.636230,551.677979 1285.887207,555.913086 
	C1286.131958,560.044678 1289.359985,561.025391 1292.685791,560.832764 
	C1296.444580,560.614990 1300.166016,559.750977 1304.668091,559.048645 
	C1304.668091,561.984863 1305.007080,564.785339 1304.529053,567.438477 
	C1304.279907,568.820740 1302.803345,570.700623 1301.517700,571.062012 
	C1292.440430,573.613464 1283.197021,574.508789 1273.967407,571.900452 
	C1265.300049,569.451050 1261.170166,563.557068 1261.436279,554.485535 
	C1261.542847,550.856750 1261.759766,547.231201 1261.941406,543.278748 
	C1259.065552,543.021057 1256.503296,542.791504 1253.959351,542.563538 
	C1254.496094,534.013428 1254.496094,534.013428 1262.853882,532.974426 
	C1263.305420,528.129883 1263.764893,523.199768 1264.299927,517.458069 
	C1271.744263,517.184509 1279.155518,516.912109 1286.872314,516.908813 
z"/>
<path fill="#050505" opacity="1.000000" stroke="none" 
	d="
M1433.746094,561.073181 
	C1436.647461,560.228821 1439.134521,559.458130 1441.716187,558.658142 
	C1442.648682,569.319519 1442.107910,570.113708 1432.408081,572.059937 
	C1422.646851,574.018494 1412.911255,574.113281 1403.344604,571.020264 
	C1395.997925,568.644958 1390.843506,564.063416 1389.994629,555.974121 
	C1389.077026,547.229004 1391.426392,539.509705 1399.435059,535.006165 
	C1410.709595,528.666138 1422.600220,528.171448 1434.322876,533.816772 
	C1442.221436,537.620605 1444.448608,543.792542 1442.694214,554.758057 
	C1432.604004,554.758057 1422.476807,554.758057 1412.310913,554.758057 
	C1413.656860,561.443726 1422.155518,563.947815 1433.746094,561.073181 
M1423.966187,547.590698 
	C1424.671753,546.957458 1426.081055,545.969849 1425.969360,545.748047 
	C1425.198853,544.216919 1424.425415,542.275208 1423.067749,541.526672 
	C1418.492554,539.004089 1413.737427,541.767578 1412.683838,547.594604 
	C1416.194702,547.594604 1419.638306,547.594604 1423.966187,547.590698 
z"/>
<path fill="#040404" opacity="1.000000" stroke="none" 
	d="
M1476.022705,569.007263 
	C1475.355103,570.197937 1474.720093,571.578674 1474.049072,571.596558 
	C1467.780029,571.762634 1461.504761,571.694885 1455.662109,571.694885 
	C1455.662109,559.575562 1455.662109,547.325806 1455.662109,535.388428 
	C1465.458008,531.363464 1466.063477,531.534241 1471.542847,539.355591 
	C1484.285156,529.105530 1489.086548,528.159973 1497.171021,534.573608 
	C1495.941040,537.996887 1494.673584,541.524658 1493.380493,545.123657 
	C1490.071899,544.734558 1486.987549,544.058105 1483.909668,544.087158 
	C1479.816650,544.125854 1477.114014,545.792053 1477.087891,550.665710 
	C1477.055908,556.633850 1476.415771,562.598816 1476.022705,569.007263 
z"/>
<path fill="#FFFFFF" opacity="1.000000" stroke="none" 
	d="
M1150.789062,551.218018 
	C1150.609375,555.622864 1149.467773,559.159607 1145.459229,560.927185 
	C1140.029907,563.321228 1134.947754,561.453308 1133.082886,556.505432 
	C1130.923950,550.777649 1133.746704,544.359375 1139.151489,542.706909 
	C1144.895386,540.950745 1148.770142,543.662415 1150.789062,551.218018 
z"/>
<path fill="#FFFFFF" opacity="1.000000" stroke="none" 
	d="
M1221.186279,545.648926 
	C1224.557251,549.460083 1225.271240,553.734680 1222.700806,557.345520 
	C1221.159790,559.510193 1217.482178,561.545715 1215.014648,561.284241 
	C1212.318237,560.998413 1208.973633,558.516296 1207.602417,556.050964 
	C1205.700073,552.630493 1206.461792,548.445312 1209.829346,545.702637 
	C1213.293335,542.881470 1217.131348,543.050781 1221.186279,545.648926 
z"/>
<path fill="#E4E4E4" opacity="1.000000" stroke="none" 
	d="
M1423.523926,547.592651 
	C1419.638306,547.594604 1416.194702,547.594604 1412.683838,547.594604 
	C1413.737427,541.767578 1418.492554,539.004089 1423.067749,541.526672 
	C1424.425415,542.275208 1425.198853,544.216919 1425.969360,545.748047 
	C1426.081055,545.969849 1424.671753,546.957458 1423.523926,547.592651 
z"/>
</svg>